<svg width="367" height="52" viewBox="0 0 367 52" fill="none" xmlns="http://www.w3.org/2000/svg">
<rect x="0.5" y="1.45001" width="365.4" height="49.41" rx="7.5" fill="#131022"/>
<rect x="0.5" y="1.45001" width="365.4" height="49.41" rx="7.5" stroke="#131022"/>
<g clip-path="url(#clip0_20005128_12668)">
<g clip-path="url(#clip1_20005128_12668)">
<g clip-path="url(#clip2_20005128_12668)">
<path d="M140.912 25.0613C140.912 21.5069 143.919 19.7753 144.01 19.6841C142.279 17.2234 139.636 16.95 138.724 16.8588C136.537 16.5854 134.35 18.1348 133.165 18.1348C131.98 18.1348 130.248 16.8588 128.334 16.8588C125.874 16.8588 123.595 18.2259 122.41 20.4132C119.858 24.7879 121.772 31.1676 124.233 34.6309C125.509 36.3626 126.876 38.2765 128.79 38.1853C130.613 38.0942 131.342 37.0005 133.529 37.0005C135.717 37.0005 136.355 38.1853 138.269 38.0942C140.274 38.0942 141.458 36.3626 142.643 34.6309C144.101 32.6259 144.648 30.7119 144.648 30.6208C144.739 30.7119 140.912 29.3449 140.912 25.0613Z" fill="white"/>
<path d="M137.266 14.5804C138.269 13.3955 138.907 11.755 138.724 10.0234C137.266 10.1145 135.534 11.0259 134.441 12.2107C133.529 13.2133 132.709 14.9449 132.891 16.5854C134.532 16.6765 136.264 15.7652 137.266 14.5804Z" fill="white"/>
<path d="M167.524 38.003H164.972L163.605 33.7195H158.593L157.225 38.003H154.674L159.504 23.3297H162.512L167.524 38.003ZM163.058 31.8967L161.782 28.0689C161.691 27.7043 161.418 26.793 161.053 25.3347C160.871 25.9727 160.689 26.8841 160.324 28.0689L159.048 31.8967H163.058Z" fill="white"/>
<path d="M180.01 32.6259C180.01 34.4486 179.554 35.8157 178.552 36.9094C177.641 37.8208 176.547 38.2765 175.18 38.2765C173.722 38.2765 172.719 37.7296 172.081 36.7271V42.2866H169.62V30.8942C169.62 29.8006 169.62 28.6158 169.529 27.4309H171.625L171.717 29.0714C172.537 27.7955 173.722 27.1575 175.362 27.1575C176.638 27.1575 177.732 27.6132 178.552 28.6158C179.554 29.7094 180.01 30.9854 180.01 32.6259ZM177.549 32.717C177.549 31.7145 177.276 30.8031 176.82 30.1651C176.273 29.436 175.635 29.1626 174.724 29.1626C174.086 29.1626 173.63 29.3449 173.084 29.7094C172.628 30.074 172.263 30.6208 172.172 31.2588C172.081 31.5322 172.081 31.8056 172.081 31.9879V33.7195C172.081 34.4486 172.354 35.1778 172.81 35.6334C173.266 36.1803 173.904 36.4537 174.724 36.4537C175.635 36.4537 176.365 36.0891 176.82 35.4512C177.276 34.7221 177.549 33.8107 177.549 32.717Z" fill="white"/>
<path d="M192.496 32.6259C192.496 34.4486 192.04 35.8157 191.038 36.9094C190.127 37.8208 189.033 38.2765 187.666 38.2765C186.208 38.2765 185.205 37.7296 184.567 36.7271V42.2866H182.106V30.8942C182.106 29.8006 182.106 28.6158 182.015 27.4309H184.111L184.203 29.0714C185.023 27.7955 186.208 27.1575 187.848 27.1575C189.124 27.1575 190.218 27.6132 191.038 28.6158C192.04 29.7094 192.496 30.9854 192.496 32.6259ZM190.035 32.717C190.035 31.7145 189.762 30.8031 189.306 30.1651C188.759 29.436 188.122 29.1626 187.21 29.1626C186.572 29.1626 186.116 29.3449 185.57 29.7094C185.114 30.074 184.749 30.6208 184.658 31.2588C184.567 31.5322 184.567 31.8056 184.567 31.9879V33.7195C184.567 34.4486 184.841 35.1778 185.296 35.6334C185.752 36.1803 186.39 36.4537 187.21 36.4537C188.122 36.4537 188.851 36.0891 189.306 35.4512C189.762 34.7221 190.035 33.8107 190.035 32.717Z" fill="white"/>
<path d="M206.532 33.9018C206.532 35.1778 206.076 36.1803 205.165 37.0005C204.162 37.8208 202.795 38.2765 201.063 38.2765C199.423 38.2765 198.147 38.0031 197.144 37.3651L197.691 35.36C198.785 35.998 199.878 36.2714 201.154 36.2714C202.066 36.2714 202.795 36.0891 203.251 35.6335C203.797 35.2689 203.98 34.7221 203.98 33.993C203.98 33.355 203.797 32.8993 203.342 32.4436C202.886 32.079 202.248 31.6233 201.246 31.3499C198.603 30.3474 197.327 28.9803 197.327 27.1575C197.327 25.9727 197.782 24.9702 198.694 24.15C199.605 23.4208 200.881 22.9651 202.43 22.9651C203.797 22.9651 204.982 23.2386 205.894 23.6943L205.256 25.6082C204.435 25.1525 203.433 24.9702 202.339 24.9702C201.519 24.9702 200.79 25.1525 200.334 25.6082C199.97 25.9727 199.696 26.4284 199.696 26.9753C199.696 27.5221 199.97 28.0689 200.425 28.4335C200.79 28.798 201.519 29.1626 202.613 29.5271C203.889 30.074 204.891 30.6208 205.438 31.3499C206.167 31.9879 206.532 32.8993 206.532 33.9018Z" fill="white"/>
<path d="M214.461 29.1626H211.818V34.3575C211.818 35.6334 212.273 36.3625 213.185 36.3625C213.64 36.3625 214.005 36.3625 214.278 36.2714L214.37 38.0942C213.914 38.2765 213.276 38.3676 212.456 38.3676C211.544 38.3676 210.724 38.0942 210.177 37.5473C209.63 37.0005 209.357 35.998 209.357 34.722V29.3449H207.808V27.6132H209.357V25.6993L211.727 24.9702V27.6132H214.37V29.1626H214.461Z" fill="white"/>
<path d="M226.491 32.6259C226.491 34.2664 226.035 35.6334 225.033 36.636C224.03 37.7296 222.663 38.2765 221.023 38.2765C219.382 38.2765 218.197 37.7296 217.195 36.7271C216.283 35.7246 215.737 34.3575 215.737 32.8081C215.737 31.1676 216.192 29.8005 217.195 28.798C218.197 27.7955 219.473 27.2487 221.114 27.2487C222.754 27.2487 224.03 27.7955 224.942 28.798C226.035 29.7094 226.491 31.0765 226.491 32.6259ZM224.03 32.717C224.03 31.7145 223.848 30.8942 223.392 30.1651C222.845 29.3449 222.116 28.8892 221.205 28.8892C220.202 28.8892 219.473 29.3449 219.018 30.1651C218.562 30.8942 218.38 31.7145 218.38 32.717C218.38 33.7195 218.562 34.5398 219.018 35.2689C219.564 36.0891 220.294 36.5448 221.205 36.5448C222.116 36.5448 222.845 36.0891 223.392 35.2689C223.757 34.5398 224.03 33.7195 224.03 32.717Z" fill="white"/>
<path d="M234.329 29.5271C234.056 29.5271 233.873 29.436 233.6 29.436C232.78 29.436 232.05 29.7094 231.595 30.3474C231.23 30.8942 230.957 31.6233 230.957 32.4436V38.0031H228.496V30.7119C228.496 29.5271 228.496 28.3423 228.405 27.3398H230.501L230.592 29.3449H230.683C230.957 28.6158 231.321 28.0689 231.868 27.7044C232.415 27.3398 232.962 27.1575 233.6 27.1575C233.782 27.1575 234.056 27.1575 234.238 27.1575V29.5271H234.329Z" fill="white"/>
<path d="M245.174 32.2613C245.174 32.717 245.174 33.0815 245.083 33.355H237.792C237.792 34.3575 238.157 35.1777 238.886 35.7246C239.524 36.1803 240.253 36.4537 241.255 36.4537C242.349 36.4537 243.352 36.2714 244.172 35.9068L244.536 37.5473C243.534 38.003 242.258 38.1853 240.891 38.1853C239.159 38.1853 237.883 37.7296 236.881 36.7271C235.878 35.7246 235.423 34.4486 235.423 32.8081C235.423 31.1676 235.878 29.8917 236.79 28.798C237.701 27.7043 238.977 27.0664 240.618 27.0664C242.167 27.0664 243.352 27.6132 244.172 28.798C244.81 29.8005 245.174 30.8942 245.174 32.2613ZM242.896 31.6233C242.896 30.8942 242.714 30.3474 242.44 29.8005C241.985 29.1626 241.347 28.798 240.526 28.798C239.706 28.798 239.068 29.1626 238.612 29.8005C238.248 30.3474 237.974 30.8942 237.883 31.6233H242.896Z" fill="white"/>
<path d="M162.238 14.3069C162.238 15.5829 161.874 16.5854 161.053 17.2234C160.324 17.8614 159.23 18.1348 157.863 18.1348C157.225 18.1348 156.587 18.1348 156.132 18.0436V10.9348C156.77 10.8437 157.408 10.7525 158.137 10.7525C159.413 10.7525 160.415 11.0259 161.053 11.5728C161.874 12.2108 162.238 13.1221 162.238 14.3069ZM161.053 14.3069C161.053 13.4867 160.78 12.8487 160.324 12.393C159.868 11.9373 159.23 11.7551 158.319 11.7551C157.955 11.7551 157.59 11.7551 157.317 11.8462V17.2234C157.499 17.2234 157.772 17.2234 158.137 17.2234C159.048 17.2234 159.777 16.95 160.233 16.4943C160.78 15.9474 161.053 15.2183 161.053 14.3069Z" fill="white"/>
<path d="M168.891 15.4006C168.891 16.2209 168.618 16.8588 168.162 17.4057C167.706 17.9525 166.977 18.2259 166.248 18.2259C165.428 18.2259 164.881 17.9525 164.334 17.4968C163.879 16.95 163.605 16.312 163.605 15.5829C163.605 14.7626 163.879 14.1247 164.334 13.5778C164.79 13.031 165.428 12.8487 166.248 12.8487C167.068 12.8487 167.706 13.1221 168.162 13.5778C168.709 13.9424 168.891 14.5804 168.891 15.4006ZM167.706 15.4006C167.706 14.9449 167.615 14.4892 167.433 14.1247C167.16 13.669 166.795 13.4867 166.339 13.4867C165.884 13.4867 165.519 13.669 165.246 14.1247C165.063 14.4892 164.972 14.8538 164.972 15.4006C164.972 15.8563 165.063 16.312 165.246 16.6766C165.519 17.1323 165.884 17.3145 166.339 17.3145C166.795 17.3145 167.16 17.1323 167.433 16.6766C167.615 16.312 167.706 15.9474 167.706 15.4006Z" fill="white"/>
<path d="M177.823 12.8487L176.182 18.0436H175.089L174.36 15.7652C174.177 15.2183 174.086 14.6715 173.904 14.1247C173.813 14.6715 173.63 15.2183 173.448 15.7652L172.719 18.0436H171.625L170.076 12.8487H171.261L171.899 15.3095C172.081 15.8563 172.172 16.4943 172.263 16.95C172.355 16.4943 172.537 15.9474 172.719 15.3095L173.448 12.8487H174.451L175.18 15.3095C175.362 15.9474 175.453 16.4943 175.636 17.0411C175.727 16.4943 175.818 15.9474 176 15.3095L176.638 12.8487H177.823Z" fill="white"/>
<path d="M184.02 18.0436H182.835V15.036C182.835 14.1247 182.471 13.669 181.742 13.669C181.377 13.669 181.104 13.7601 180.922 14.0335C180.739 14.3069 180.557 14.5803 180.557 14.9449V18.0436H179.372V14.3069C179.372 13.8512 179.372 13.3955 179.372 12.8487H180.375L180.466 13.669C180.648 13.3955 180.83 13.2133 181.104 13.031C181.468 12.8487 181.742 12.7576 182.198 12.7576C182.653 12.7576 183.109 12.9398 183.473 13.2133C183.929 13.5778 184.111 14.2158 184.111 14.9449V18.0436H184.02Z" fill="white"/>
<path d="M187.301 18.0437H186.116V10.4791H187.301V18.0437Z" fill="white"/>
<path d="M194.228 15.4006C194.228 16.2209 193.954 16.8588 193.499 17.4057C193.043 17.9525 192.314 18.2259 191.585 18.2259C190.765 18.2259 190.218 17.9525 189.671 17.4968C189.215 16.95 188.942 16.312 188.942 15.5829C188.942 14.7626 189.215 14.1247 189.671 13.5778C190.127 13.031 190.765 12.8487 191.585 12.8487C192.405 12.8487 193.043 13.1221 193.499 13.5778C194.046 13.9424 194.228 14.5804 194.228 15.4006ZM193.043 15.4006C193.043 14.9449 192.952 14.4892 192.77 14.1247C192.496 13.669 192.132 13.4867 191.676 13.4867C191.22 13.4867 190.856 13.669 190.582 14.1247C190.4 14.4892 190.309 14.8538 190.309 15.4006C190.309 15.8563 190.4 16.312 190.582 16.6766C190.856 17.1323 191.22 17.3145 191.676 17.3145C192.132 17.3145 192.496 17.1323 192.77 16.6766C192.952 16.312 193.043 15.9474 193.043 15.4006Z" fill="white"/>
<path d="M199.97 18.0436H198.876L198.785 17.4057C198.42 17.8613 197.873 18.1348 197.235 18.1348C196.689 18.1348 196.324 17.9525 196.051 17.6791C195.777 17.4057 195.595 17.0411 195.595 16.5854C195.595 15.9474 195.868 15.4917 196.415 15.1272C196.962 14.7626 197.691 14.6715 198.694 14.6715V14.5803C198.694 13.8512 198.329 13.5778 197.6 13.5778C197.053 13.5778 196.597 13.669 196.233 13.9424L195.959 13.2133C196.415 12.9398 197.053 12.7576 197.782 12.7576C199.149 12.7576 199.878 13.4867 199.878 14.9449V16.8588C199.97 17.3145 199.97 17.7702 199.97 18.0436ZM198.785 16.2208V15.4917C197.509 15.4917 196.78 15.8563 196.78 16.5854C196.78 16.8588 196.871 17.0411 197.053 17.2234C197.235 17.4057 197.418 17.4057 197.6 17.4057C197.873 17.4057 198.147 17.3145 198.329 17.1322C198.511 16.95 198.694 16.7677 198.785 16.4943C198.785 16.4031 198.785 16.312 198.785 16.2208Z" fill="white"/>
<path d="M206.805 18.0437H205.711L205.62 17.2234C205.256 17.8614 204.709 18.1348 203.889 18.1348C203.251 18.1348 202.704 17.9525 202.339 17.4057C201.884 16.95 201.701 16.312 201.701 15.4918C201.701 14.6715 201.975 13.9424 202.43 13.4867C202.886 13.031 203.433 12.7576 204.071 12.7576C204.8 12.7576 205.256 13.031 205.62 13.4867V10.4791H206.805V16.6766C206.714 17.1323 206.714 17.588 206.805 18.0437ZM205.529 15.8563V14.9449C205.529 14.7627 205.529 14.6715 205.529 14.5804C205.438 14.307 205.256 14.1247 205.073 13.9424C204.891 13.7601 204.618 13.669 204.253 13.669C203.797 13.669 203.433 13.8513 203.251 14.2158C202.977 14.5804 202.886 15.0361 202.886 15.4918C202.886 16.0386 202.977 16.4032 203.251 16.7677C203.524 17.1323 203.889 17.3145 204.253 17.3145C204.618 17.3145 204.982 17.1323 205.165 16.8588C205.438 16.4943 205.529 16.2209 205.529 15.8563Z" fill="white"/>
<path d="M216.921 15.4006C216.921 16.2209 216.648 16.8588 216.192 17.4057C215.737 17.9525 215.008 18.2259 214.278 18.2259C213.458 18.2259 212.911 17.9525 212.364 17.4968C211.909 16.95 211.635 16.312 211.635 15.5829C211.635 14.7626 211.909 14.1247 212.364 13.5778C212.82 13.031 213.458 12.8487 214.278 12.8487C215.099 12.8487 215.737 13.1221 216.192 13.5778C216.739 13.9424 216.921 14.5804 216.921 15.4006ZM215.737 15.4006C215.737 14.9449 215.645 14.4892 215.463 14.1247C215.19 13.669 214.825 13.4867 214.37 13.4867C213.914 13.4867 213.549 13.669 213.276 14.1247C213.094 14.4892 213.002 14.8538 213.002 15.4006C213.002 15.8563 213.094 16.312 213.276 16.6766C213.549 17.1323 213.914 17.3145 214.37 17.3145C214.825 17.3145 215.19 17.1323 215.463 16.6766C215.554 16.312 215.737 15.9474 215.737 15.4006Z" fill="white"/>
<path d="M223.301 18.0436H222.116V15.036C222.116 14.1247 221.752 13.669 221.023 13.669C220.658 13.669 220.385 13.7601 220.202 14.0335C220.02 14.3069 219.838 14.5803 219.838 14.9449V18.0436H218.653V14.3069C218.653 13.8512 218.653 13.3955 218.653 12.8487H219.656L219.747 13.669C219.929 13.3955 220.111 13.2133 220.385 13.031C220.749 12.8487 221.023 12.7576 221.478 12.7576C221.934 12.7576 222.39 12.9398 222.754 13.2133C223.21 13.5778 223.392 14.2158 223.392 14.9449V18.0436H223.301Z" fill="white"/>
<path d="M231.321 13.669H230.045V16.2209C230.045 16.8588 230.319 17.2234 230.775 17.2234C230.957 17.2234 231.139 17.2234 231.321 17.1322V18.0436C231.048 18.1348 230.775 18.1348 230.41 18.1348C229.954 18.1348 229.59 17.9525 229.316 17.6791C229.043 17.4057 228.952 16.95 228.952 16.312V13.669H228.132V12.7576H228.952V11.8462L230.137 11.4816V12.7576H231.413L231.321 13.669Z" fill="white"/>
<path d="M237.61 18.0437H236.425V15.1272C236.425 14.2158 236.061 13.7601 235.331 13.7601C234.785 13.7601 234.42 14.0335 234.238 14.5804C234.238 14.6715 234.147 14.8538 234.147 15.0361V18.1348H232.962V10.4791H234.147V13.5778C234.511 13.031 235.058 12.7576 235.787 12.7576C236.243 12.7576 236.699 12.9399 236.972 13.2133C237.337 13.5778 237.61 14.2158 237.61 14.9449V18.0437Z" fill="white"/>
<path d="M244.081 15.2183C244.081 15.4006 244.081 15.5829 244.081 15.7652H240.526C240.526 16.312 240.709 16.6765 241.073 16.95C241.347 17.2234 241.802 17.3145 242.258 17.3145C242.805 17.3145 243.261 17.2234 243.716 17.0411L243.899 17.8613C243.352 18.0436 242.805 18.2259 242.076 18.2259C241.256 18.2259 240.618 17.9525 240.162 17.4968C239.706 17.0411 239.433 16.4031 239.433 15.5829C239.433 14.7626 239.615 14.1247 240.071 13.5778C240.526 13.031 241.164 12.7576 241.985 12.7576C242.714 12.7576 243.352 13.031 243.716 13.5778C243.899 14.0335 244.081 14.5803 244.081 15.2183ZM242.987 14.8538C242.987 14.4892 242.896 14.2158 242.714 13.9424C242.531 13.5778 242.167 13.4867 241.802 13.4867C241.438 13.4867 241.073 13.669 240.891 13.9424C240.709 14.2158 240.618 14.4892 240.526 14.8538H242.987Z" fill="white"/>
</g>
</g>
</g>
<defs>
<clipPath id="clip0_20005128_12668">
<rect width="124" height="32.81" fill="white" transform="translate(121.2 9.75)"/>
</clipPath>
<clipPath id="clip1_20005128_12668">
<rect width="124" height="32.81" fill="white" transform="translate(121.2 9.75)"/>
</clipPath>
<clipPath id="clip2_20005128_12668">
<rect width="123.949" height="32.81" fill="white" transform="translate(121.226 9.75)"/>
</clipPath>
</defs>
</svg>
