<svg width="29" height="29" viewBox="0 0 29 29" fill="none" xmlns="http://www.w3.org/2000/svg">
<g id="bars-graphic" clip-path="url(#clip0_4632_11155)">
<path id="Vector" d="M26.6506 22.3921V3.14359C26.6506 2.84216 26.4052 2.59671 26.1037 2.59671H23.6977C23.3961 2.59671 23.1508 2.84216 23.1508 3.14359V26.22H27.7441C28.3483 26.22 28.8379 26.7096 28.8379 27.3135C28.8379 27.9177 28.3483 28.4073 27.7441 28.4073H1.93378C1.32965 28.4073 0.840027 27.9177 0.840027 27.3135V19.4939C0.840027 17.9863 2.06665 16.7597 3.57419 16.7597H5.98022C7.48798 16.7597 8.71439 17.9863 8.71439 19.4939V22.3921C8.71439 22.9962 8.22476 23.4858 7.62085 23.4858C7.01672 23.4858 6.5271 22.9962 6.5271 22.3921V19.4939C6.5271 19.1924 6.28186 18.947 5.98022 18.947H3.57419C3.27277 18.947 3.02731 19.1924 3.02731 19.4939V26.22H10.9019V11.8929C10.9019 10.3852 12.1283 9.15878 13.636 9.15878H16.0421C17.5496 9.15878 18.7762 10.3852 18.7762 11.8929V22.3921C18.7762 22.9962 18.2866 23.4858 17.6825 23.4858C17.0786 23.4858 16.5887 22.9962 16.5887 22.3921V11.8929C16.5887 11.5913 16.3435 11.3461 16.0421 11.3461H13.636C13.3344 11.3461 13.0892 11.5913 13.0892 11.8929V26.22H20.9635V3.14359C20.9635 1.63605 22.1902 0.409424 23.6977 0.409424H26.1037C27.6113 0.409424 28.8379 1.63605 28.8379 3.14359V22.3921C28.8379 22.9962 28.3483 23.4858 27.7441 23.4858C27.1402 23.4858 26.6506 22.9962 26.6506 22.3921ZM5.19473 10.1976H3.56607C3.29733 10.1976 3.02518 10.0287 3.02518 9.70566C3.02518 9.10153 2.53555 8.61191 1.93164 8.61191C1.32751 8.61191 0.837891 9.10153 0.837891 9.70566C0.837891 11.1743 1.98334 12.3315 3.46375 12.3826V12.9865C3.46375 13.5906 3.95337 14.0802 4.5575 14.0802C5.16141 14.0802 5.65103 13.5906 5.65103 12.9865V12.3531C7.15558 12.1429 8.2771 10.9056 8.2771 9.36365V9.26794C8.2771 7.54935 6.89432 6.15118 5.19473 6.15118H4.19263C3.69424 6.15118 3.30374 5.77072 3.30374 5.28473V5.20547C3.30374 4.71585 3.68591 4.34671 4.19263 4.34671H5.14026C5.41882 4.34671 5.70679 4.53299 5.70679 4.84509C5.70679 5.44922 6.19662 5.93884 6.80054 5.93884C7.40466 5.93884 7.89429 5.44922 7.89429 4.84509C7.89429 3.5343 6.92636 2.44077 5.65103 2.20642V1.50317C5.65103 0.899048 5.16141 0.409424 4.5575 0.409424C3.95337 0.409424 3.46375 0.899048 3.46375 1.50317V2.24402C2.92242 2.37177 2.42661 2.64157 2.02457 3.03506C1.43881 3.60822 1.11646 4.37897 1.11646 5.20547V5.28473C1.11646 6.11081 1.43817 6.8822 2.02243 7.45706C2.60028 8.02551 3.37103 8.33847 4.19263 8.33847H5.19473C5.67987 8.33847 6.0896 8.76422 6.0896 9.26794V9.36365C6.0896 9.83917 5.70486 10.1976 5.19473 10.1976Z" fill="url(#paint0_linear_4632_11155)"/>
</g>
<defs>
<linearGradient id="paint0_linear_4632_11155" x1="0.837891" y1="14.4753" x2="28.8379" y2="14.4753" gradientUnits="userSpaceOnUse">
<stop stop-color="#6366F1"/>
<stop offset="0.5" stop-color="#8B5CF6"/>
<stop offset="1" stop-color="#D946EF"/>
</linearGradient>
<clipPath id="clip0_4632_11155">
<rect width="28" height="28" fill="white" transform="translate(0.837891 0.409424)"/>
</clipPath>
</defs>
</svg>
