<svg width="29" height="29" viewBox="0 0 29 29" fill="none" xmlns="http://www.w3.org/2000/svg">
<g id="communication" clip-path="url(#clip0_4632_11148)">
<path id="Vector" d="M26.7876 22.9539C27.8872 21.4567 28.4648 19.717 28.4648 17.8834C28.4648 14.9482 26.9427 12.2232 24.3746 10.5226C24.1378 7.9075 22.9167 5.48228 20.8751 3.61367C18.6176 1.54741 15.6224 0.409424 12.4414 0.409424C9.26042 0.409424 6.2653 1.54741 4.00769 3.61372C1.72307 5.70469 0.46488 8.49255 0.46488 11.4637C0.46488 13.749 1.20157 15.9156 2.60201 17.7694L0.544614 22.8588C0.377763 23.2715 0.477677 23.7442 0.797325 24.054C1.00568 24.256 1.28011 24.3626 1.5589 24.3626C1.70782 24.3625 1.85799 24.3321 1.99985 24.2696L7.86786 21.6829C8.60455 21.9645 9.3635 22.1751 10.14 22.3146C10.9353 23.6226 12.0697 24.7303 13.4488 25.5366C14.9885 26.4367 16.7662 26.9177 18.5948 26.9315C18.6216 26.9335 18.6484 26.9356 18.6758 26.9356C19.94 26.9356 21.1649 26.7172 22.3236 26.2859L26.9299 28.3165C27.0718 28.379 27.2219 28.4094 27.3709 28.4094C27.6496 28.4094 27.9241 28.3029 28.1324 28.1009C28.4521 27.791 28.552 27.3184 28.3851 26.9057L26.7876 22.9539ZM24.5213 23.1844L25.3475 25.2283L22.7861 24.0992C22.5093 23.9772 22.1941 23.9753 21.9157 24.094C20.9118 24.5224 19.8368 24.7419 18.7201 24.7476C18.7053 24.747 18.6908 24.7453 18.6758 24.7453C16.5203 24.7453 14.484 23.903 13.0614 22.5019C14.8651 22.4155 16.6332 21.9548 18.2095 21.1543C18.7481 20.8808 18.9629 20.2224 18.6893 19.6838C18.4158 19.1453 17.7575 18.9305 17.2189 19.2039C15.7678 19.941 14.1157 20.3305 12.4414 20.3305C10.9865 20.3305 9.58581 20.0477 8.2784 19.4898C8.00009 19.371 7.68487 19.3728 7.40799 19.495L3.58217 21.1815L4.87028 17.9951C5.02302 17.6172 4.95307 17.1858 4.68866 16.8756C3.35653 15.3128 2.65238 13.4414 2.65238 11.4637C2.65238 6.5745 7.04372 2.59692 12.4414 2.59692C17.8391 2.59692 22.2305 6.5745 22.2305 11.4637C22.2305 13.0429 21.7662 14.5931 20.8878 15.9469C20.559 16.4537 20.7033 17.131 21.21 17.4597C21.7167 17.7886 22.394 17.6443 22.7229 17.1375C23.5024 15.9361 24.0232 14.6096 24.2641 13.2319C25.5453 14.4867 26.2773 16.1394 26.2773 17.8834C26.2773 19.4106 25.7329 20.8565 24.7029 22.0649C24.4385 22.375 24.3685 22.8065 24.5213 23.1844ZM13.4805 17.0891C13.4805 17.6932 12.9908 18.1828 12.3867 18.1828C11.7827 18.1828 11.293 17.6932 11.293 17.0891C11.293 16.485 11.7827 15.9953 12.3867 15.9953C12.9908 15.9953 13.4805 16.485 13.4805 17.0891ZM16.542 8.89428C16.5427 8.90948 16.543 8.92469 16.543 8.94005C16.5434 10.5865 15.5651 12.0682 14.0508 12.7147C13.7374 12.8485 13.5348 13.1641 13.5348 13.5186V13.5891C13.5348 14.1932 13.0452 14.6828 12.4411 14.6828C11.837 14.6828 11.3473 14.1932 11.3473 13.5891V13.5187C11.3473 12.2865 12.0713 11.1813 13.1919 10.703C13.8893 10.4052 14.3432 9.7281 14.3553 8.97194C14.355 8.96144 14.3548 8.95088 14.3548 8.94033C14.3548 7.88514 13.4963 7.02665 12.4411 7.02665C11.3859 7.0266 10.5274 7.88508 10.5274 8.94027C10.5274 9.54435 10.0377 10.034 9.43361 10.034C8.82953 10.034 8.33986 9.54435 8.33986 8.94027C8.33986 6.67889 10.1797 4.8391 12.4411 4.8391C14.6872 4.8391 16.5174 6.65401 16.542 8.89428Z" fill="url(#paint0_linear_4632_11148)"/>
</g>
<defs>
<linearGradient id="paint0_linear_4632_11148" x1="0.464844" y1="14.4764" x2="28.4649" y2="14.4764" gradientUnits="userSpaceOnUse">
<stop stop-color="#6366F1"/>
<stop offset="0.5" stop-color="#8B5CF6"/>
<stop offset="1" stop-color="#D946EF"/>
</linearGradient>
<clipPath id="clip0_4632_11148">
<rect width="28" height="28" fill="white" transform="translate(0.46582 0.409424)"/>
</clipPath>
</defs>
</svg>
