<svg width="29" height="29" viewBox="0 0 29 29" fill="none" xmlns="http://www.w3.org/2000/svg">
<g id="credit-card" clip-path="url(#clip0_4632_11169)">
<path id="Vector" d="M23.3691 16.9685C23.9733 16.9685 24.4629 17.4582 24.4629 18.0623V19.3748C24.4629 19.9789 23.9733 20.4685 23.3691 20.4685H20.8535C20.2494 20.4685 19.7598 19.9789 19.7598 19.3748V18.0623C19.7598 17.4582 20.2494 16.9685 20.8535 16.9685H23.3691ZM26.6504 14.9998V11.7185H3.02539V20.4619C3.02539 21.668 4.00677 22.6494 5.21289 22.6494H24.4629C25.669 22.6494 26.6504 21.668 26.6504 20.4619C26.6504 19.8578 27.14 19.3682 27.7441 19.3682C28.3483 19.3682 28.8379 19.8578 28.8379 20.4619C28.8379 22.8744 26.8753 24.8369 24.4629 24.8369H5.21289C2.80045 24.8369 0.837891 22.8744 0.837891 20.4619V8.64941C0.837891 6.23697 2.80045 4.27441 5.21289 4.27441H24.4629C26.8753 4.27441 28.8379 6.23697 28.8379 8.64941V14.9998C28.8379 15.6039 28.3483 16.0935 27.7441 16.0935C27.14 16.0935 26.6504 15.6039 26.6504 14.9998ZM26.6504 9.53104V8.64941C26.6504 7.4433 25.669 6.46191 24.4629 6.46191H5.21289C4.00677 6.46191 3.02539 7.4433 3.02539 8.64941V9.53104H26.6504ZM6.30664 13.906C5.70251 13.906 5.21289 14.3957 5.21289 14.9998C5.21289 15.6039 5.70251 16.0935 6.30664 16.0935H15.3301C15.9342 16.0935 16.4238 15.6039 16.4238 14.9998C16.4238 14.3957 15.9342 13.906 15.3301 13.906H6.30664Z" fill="url(#paint0_linear_4632_11169)"/>
</g>
<defs>
<linearGradient id="paint0_linear_4632_11169" x1="0.837891" y1="14.6049" x2="28.8379" y2="14.6049" gradientUnits="userSpaceOnUse">
<stop stop-color="#6366F1"/>
<stop offset="0.5" stop-color="#8B5CF6"/>
<stop offset="1" stop-color="#D946EF"/>
</linearGradient>
<clipPath id="clip0_4632_11169">
<rect width="28" height="28" fill="white" transform="translate(0.837891 0.555664)"/>
</clipPath>
</defs>
</svg>
