<svg width="367" height="51" viewBox="0 0 367 51" fill="none" xmlns="http://www.w3.org/2000/svg">
<rect x="0.5" y="0.859985" width="365.4" height="49.3" rx="7.5" fill="#131022"/>
<rect x="0.5" y="0.859985" width="365.4" height="49.3" rx="7.5" stroke="#131022"/>
<g clip-path="url(#clip0_20005128_12695)">
<g clip-path="url(#clip1_20005128_12695)">
<g clip-path="url(#clip2_20005128_12695)">
<path d="M159.186 13.2475C159.186 14.2693 158.879 14.9846 158.266 15.5978C157.551 16.3131 156.733 16.6196 155.609 16.6196C154.588 16.6196 153.668 16.3131 152.953 15.5978C152.237 14.8825 151.828 14.065 151.828 13.0431C151.828 12.0212 152.237 11.1015 152.953 10.4884C153.668 9.77308 154.588 9.46652 155.609 9.46652C156.12 9.46652 156.631 9.56871 157.04 9.77308C157.551 9.97746 157.858 10.1818 158.164 10.5906L157.653 10.9993C157.142 10.3862 156.529 10.1818 155.712 10.1818C154.996 10.1818 154.281 10.4884 153.77 10.9993C153.259 11.5103 152.953 12.2256 152.953 13.0431C152.953 13.8606 153.259 14.5759 153.77 15.0868C154.281 15.5978 154.996 15.9043 155.712 15.9043C156.529 15.9043 157.142 15.5978 157.755 15.0868C158.062 14.7803 158.266 14.2693 158.368 13.6562H155.814V12.6343H159.288C159.186 12.8387 159.186 13.0431 159.186 13.2475Z" fill="white"/>
<path d="M164.704 10.284H161.434V12.5321H164.398V13.3496H161.434V15.5978H164.704V16.4153H160.514V9.46652H164.704V10.284Z" fill="white"/>
<path d="M168.587 16.4153H167.668V10.284H165.624V9.46652H170.529V10.284H168.485V16.4153H168.587Z" fill="white"/>
<path d="M174.105 16.4153V9.46652H175.025V16.4153H174.105Z" fill="white"/>
<path d="M179.113 16.4153H178.193V10.284H176.149V9.46652H181.156V10.284H179.113V16.4153Z" fill="white"/>
<path d="M190.455 15.4956C189.74 16.2109 188.923 16.5175 187.798 16.5175C186.777 16.5175 185.857 16.2109 185.142 15.4956C184.426 14.7803 184.12 13.9628 184.12 12.9409C184.12 11.919 184.426 11.1015 185.142 10.3862C185.857 9.67091 186.674 9.36435 187.798 9.36435C188.82 9.36435 189.74 9.67091 190.455 10.3862C191.171 11.1015 191.477 11.919 191.477 12.9409C191.477 13.9628 191.171 14.7803 190.455 15.4956ZM185.857 14.8825C186.368 15.3934 187.083 15.7 187.798 15.7C188.514 15.7 189.229 15.3934 189.74 14.8825C190.251 14.3715 190.557 13.6562 190.557 12.8387C190.557 12.0212 190.251 11.3059 189.74 10.795C189.229 10.284 188.514 9.97747 187.798 9.97747C186.981 9.97747 186.368 10.284 185.857 10.795C185.346 11.3059 185.039 12.0212 185.039 12.8387C185.039 13.7584 185.346 14.3715 185.857 14.8825Z" fill="white"/>
<path d="M192.806 16.4153V9.46652H193.93L197.404 14.8825V13.554V9.46652H198.324V16.4153H197.404L193.725 10.6928V12.0212V16.4153H192.806Z" fill="white"/>
<path d="M183.915 26.634C181.156 26.634 178.806 28.6778 178.806 31.539C178.806 34.4003 181.054 36.444 183.915 36.444C186.674 36.444 189.025 34.2981 189.025 31.539C189.025 28.6778 186.674 26.634 183.915 26.634ZM183.915 34.6047C182.383 34.6047 181.054 33.3784 181.054 31.6412C181.054 29.904 182.383 28.6778 183.915 28.6778C185.448 28.6778 186.777 29.904 186.777 31.6412C186.777 33.2762 185.448 34.6047 183.915 34.6047ZM172.777 26.634C170.018 26.634 167.668 28.6778 167.668 31.539C167.668 34.4003 169.916 36.444 172.777 36.444C175.536 36.444 177.886 34.2981 177.886 31.539C177.886 28.6778 175.638 26.634 172.777 26.634ZM172.777 34.6047C171.244 34.6047 169.916 33.3784 169.916 31.6412C169.916 29.904 171.244 28.6778 172.777 28.6778C174.31 28.6778 175.638 29.904 175.638 31.6412C175.638 33.2762 174.31 34.6047 172.777 34.6047ZM159.595 28.1668V30.3128H164.704C164.602 31.539 164.193 32.3565 163.58 32.9697C162.865 33.685 161.638 34.5025 159.595 34.5025C156.427 34.5025 153.974 32.05 153.974 28.8822C153.974 25.7143 156.427 23.2618 159.595 23.2618C161.332 23.2618 162.558 23.875 163.478 24.7947L165.011 23.2618C163.682 22.0356 162.047 21.1159 159.595 21.1159C155.201 21.1159 151.624 24.5903 151.624 28.78C151.624 32.9697 155.303 36.444 159.595 36.444C161.945 36.444 163.682 35.7287 165.113 34.2981C166.543 32.8675 166.952 30.9259 166.952 29.3931C166.952 28.8822 166.952 28.4734 166.85 28.0647H159.595V28.1668ZM213.652 29.8018C213.243 28.6778 211.915 26.634 209.258 26.634C206.601 26.634 204.455 28.6778 204.455 31.539C204.455 34.2981 206.601 36.444 209.462 36.444C211.813 36.444 213.141 35.0134 213.652 34.2981L211.915 33.174C211.302 33.9915 210.586 34.5025 209.462 34.5025C208.338 34.5025 207.521 33.9915 207.01 32.9697L213.754 30.2106L213.652 29.8018ZM206.703 31.4368C206.601 29.4953 208.236 28.5756 209.36 28.5756C210.28 28.5756 210.995 28.9843 211.199 29.5975L206.703 31.4368ZM201.185 36.2397H203.433V21.6268H201.185V36.2397ZM197.506 27.7581C196.893 27.145 195.973 26.634 194.747 26.634C192.193 26.634 189.842 28.78 189.842 31.6412C189.842 34.4003 192.193 36.5462 194.747 36.5462C195.973 36.5462 196.893 36.0353 197.404 35.4222H197.506V36.1375C197.506 38.079 196.484 38.9987 194.849 38.9987C193.521 38.9987 192.601 38.079 192.295 37.2615L190.353 37.9768C190.864 39.3053 192.397 40.9403 194.849 40.9403C197.506 40.9403 199.652 39.4075 199.652 35.8309V26.9406H197.506V27.7581ZM194.952 34.6047C193.419 34.6047 192.09 33.3784 192.09 31.6412C192.09 29.904 193.419 28.5756 194.952 28.5756C196.484 28.5756 197.711 29.8018 197.711 31.6412C197.711 33.2762 196.484 34.6047 194.952 34.6047ZM224.075 21.6268H218.761V36.1375H221.009V30.6193H224.075C226.528 30.6193 228.98 28.8822 228.98 26.1231C228.98 23.364 226.528 21.6268 224.075 21.6268ZM224.075 28.6778H220.907V23.6706H224.075C225.71 23.6706 226.732 24.999 226.732 26.1231C226.732 27.3493 225.812 28.6778 224.075 28.6778ZM237.87 26.5318C236.235 26.5318 234.6 27.2472 233.885 28.78L235.827 29.5975C236.235 28.78 237.053 28.5756 237.87 28.5756C238.994 28.5756 240.221 29.2909 240.221 30.415V30.6193C239.812 30.415 238.994 30.0062 237.87 30.0062C235.724 30.0062 233.578 31.1303 233.578 33.2762C233.578 35.2178 235.316 36.444 237.257 36.444C238.79 36.444 239.608 35.8309 240.118 35.0134H240.221V36.1375H242.367V30.6193C242.367 28.0647 240.425 26.5318 237.87 26.5318ZM237.564 34.6047C236.848 34.6047 235.827 34.2981 235.827 33.3784C235.827 32.2543 237.053 31.8456 238.177 31.8456C239.199 31.8456 239.608 32.05 240.221 32.3565C240.016 33.5828 238.892 34.6047 237.564 34.6047ZM250.235 26.9406L247.68 33.2762H247.578L244.921 26.9406H242.571L246.556 35.7287L244.308 40.6337H246.658L252.79 26.9406H250.235ZM230.206 36.2397H232.454V21.6268H230.206V36.2397Z" fill="white"/>
<path d="M114.223 10.0797C113.917 10.3862 113.713 10.9993 113.713 11.7147V37.4659C113.713 38.1812 113.917 38.7943 114.223 39.1009L114.326 39.2031L129.143 24.7947V24.4881L114.223 10.0797Z" fill="url(#paint0_linear_20005128_12695)"/>
<path d="M134.048 29.4953L129.143 24.6925V24.3859L134.048 19.5831L134.15 19.6853L139.975 22.9553C141.61 23.875 141.61 25.4078 139.975 26.3275L134.15 29.4953H134.048Z" fill="url(#paint1_linear_20005128_12695)"/>
<path d="M134.15 29.4953L129.143 24.5903L114.223 39.1009C114.837 39.6118 115.756 39.714 116.778 39.1009L134.15 29.4953Z" fill="url(#paint2_linear_20005128_12695)"/>
<path d="M134.15 19.6853L116.778 9.97747C115.756 9.46653 114.837 9.46653 114.223 10.0797L129.041 24.5903L134.15 19.6853Z" fill="url(#paint3_linear_20005128_12695)"/>
</g>
</g>
</g>
<defs>
<linearGradient id="paint0_linear_20005128_12695" x1="127.671" y1="37.8549" x2="108.136" y2="17.8473" gradientUnits="userSpaceOnUse">
<stop stop-color="#00A0FF"/>
<stop offset="0.0066" stop-color="#00A1FF"/>
<stop offset="0.2601" stop-color="#00BEFF"/>
<stop offset="0.5122" stop-color="#00D2FF"/>
<stop offset="0.7604" stop-color="#00DFFF"/>
<stop offset="1" stop-color="#00E3FF"/>
</linearGradient>
<linearGradient id="paint1_linear_20005128_12695" x1="142.169" y1="24.5653" x2="113.314" y2="24.5653" gradientUnits="userSpaceOnUse">
<stop stop-color="#FFE000"/>
<stop offset="0.4087" stop-color="#FFBD00"/>
<stop offset="0.7754" stop-color="#FFA500"/>
<stop offset="1" stop-color="#FF9C00"/>
</linearGradient>
<linearGradient id="paint2_linear_20005128_12695" x1="121.542" y1="31.5438" x2="95.0518" y2="4.41192" gradientUnits="userSpaceOnUse">
<stop stop-color="#FF3A44"/>
<stop offset="1" stop-color="#C31162"/>
</linearGradient>
<linearGradient id="paint3_linear_20005128_12695" x1="101.14" y1="38.4866" x2="112.969" y2="26.371" gradientUnits="userSpaceOnUse">
<stop stop-color="#32A071"/>
<stop offset="0.0685" stop-color="#2DA771"/>
<stop offset="0.4762" stop-color="#15CF74"/>
<stop offset="0.8009" stop-color="#06E775"/>
<stop offset="1" stop-color="#00F076"/>
</linearGradient>
<clipPath id="clip0_20005128_12695">
<rect width="139" height="32.7" fill="white" transform="translate(113.7 9.15997)"/>
</clipPath>
<clipPath id="clip1_20005128_12695">
<rect width="139" height="32.7" fill="white" transform="translate(113.7 9.15997)"/>
</clipPath>
<clipPath id="clip2_20005128_12695">
<rect width="138.975" height="32.7" fill="white" transform="translate(113.713 9.15997)"/>
</clipPath>
</defs>
</svg>
