<svg width="29" height="29" viewBox="0 0 29 29" fill="none" xmlns="http://www.w3.org/2000/svg">
<g id="happy" clip-path="url(#clip0_4632_11132)">
<path id="Vector" d="M14.4111 21.9194C9.37988 21.9194 7.03857 17.6976 6.94116 17.5179C6.65384 16.9867 6.85165 16.3229 7.38293 16.0354C7.91443 15.7481 8.57794 15.9459 8.86526 16.4772C8.86761 16.4814 9.33908 17.3246 10.2769 18.1445C11.4817 19.1979 12.8726 19.7319 14.4111 19.7319C18.1532 19.7319 19.9393 16.5096 19.9568 16.4772C20.2443 15.9459 20.9081 15.7481 21.4393 16.0356C21.9706 16.3229 22.1684 16.9867 21.8809 17.5179C21.7837 17.6976 19.4424 21.9194 14.4111 21.9194ZM21.7098 26.2455C22.2265 25.9326 22.3917 25.2601 22.0787 24.7433C21.7657 24.2268 21.093 24.0616 20.5765 24.3746C18.7393 25.4874 16.6262 26.0757 14.4658 26.0757C7.95245 26.0757 2.65332 20.7766 2.65332 14.2632C2.65332 7.74982 7.95245 2.45068 14.4658 2.45068C20.9792 2.45068 26.2783 7.74982 26.2783 14.2632C26.2783 16.5923 25.5858 18.8593 24.2754 20.8193C23.9396 21.3215 24.0746 22.0008 24.5766 22.3364C25.079 22.6722 25.7581 22.5372 26.0938 22.035C27.6457 19.7142 28.4658 17.0266 28.4658 14.2632C28.4658 10.5237 27.0096 7.0079 24.3653 4.36368C21.7211 1.71945 18.2053 0.263184 14.4658 0.263184C10.7263 0.263184 7.21054 1.71945 4.56631 4.36368C1.92209 7.0079 0.46582 10.5237 0.46582 14.2632C0.46582 18.0027 1.92209 21.5185 4.56631 24.1627C7.21054 26.8069 10.7263 28.2632 14.4658 28.2632C17.0259 28.2632 19.5308 27.5655 21.7098 26.2455ZM22.0674 11.6382C22.0674 10.1304 20.8408 8.90381 19.333 8.90381C17.8253 8.90381 16.5986 10.1304 16.5986 11.6382C16.5986 12.2423 17.0883 12.7319 17.6924 12.7319C18.2965 12.7319 18.7861 12.2423 18.7861 11.6382C18.7861 11.3365 19.0314 11.0913 19.333 11.0913C19.6346 11.0913 19.8799 11.3365 19.8799 11.6382C19.8799 12.2423 20.3695 12.7319 20.9736 12.7319C21.5778 12.7319 22.0674 12.2423 22.0674 11.6382ZM12.3877 11.6382C12.3877 10.1304 11.1611 8.90381 9.65332 8.90381C8.14557 8.90381 6.91895 10.1304 6.91895 11.6382C6.91895 12.2423 7.40857 12.7319 8.0127 12.7319C8.61682 12.7319 9.10645 12.2423 9.10645 11.6382C9.10645 11.3365 9.35168 11.0913 9.65332 11.0913C9.95496 11.0913 10.2002 11.3365 10.2002 11.6382C10.2002 12.2423 10.6898 12.7319 11.2939 12.7319C11.8981 12.7319 12.3877 12.2423 12.3877 11.6382Z" fill="url(#paint0_linear_4632_11132)"/>
</g>
<defs>
<linearGradient id="paint0_linear_4632_11132" x1="0.46582" y1="14.3302" x2="28.4658" y2="14.3302" gradientUnits="userSpaceOnUse">
<stop stop-color="#6366F1"/>
<stop offset="0.5" stop-color="#8B5CF6"/>
<stop offset="1" stop-color="#D946EF"/>
</linearGradient>
<clipPath id="clip0_4632_11132">
<rect width="28" height="28" fill="white" transform="translate(0.46582 0.263184)"/>
</clipPath>
</defs>
</svg>
