<svg width="61" height="61" viewBox="0 0 61 61" fill="none" xmlns="http://www.w3.org/2000/svg">
<rect x="0.46582" y="0.555664" width="60" height="60" rx="8" fill="#6366F1" fill-opacity="0.08"/>
<g clip-path="url(#clip0_4632_11161)">
<path d="M30.4111 44.5557C30.2434 44.5557 30.0759 44.5172 29.9219 44.4403C29.7939 44.3762 26.7523 42.8341 23.57 39.3749C21.7046 37.3476 20.1725 35.0742 19.016 32.6182C17.5715 29.5506 16.7142 26.192 16.4675 22.6358C16.4474 22.3457 16.5437 22.0597 16.7349 21.8407C16.9263 21.6217 17.1968 21.4878 17.4871 21.4688C19.4902 21.3372 21.0595 19.6596 21.0595 17.6494C21.0595 17.0453 21.5491 16.5557 22.1532 16.5557H38.7782C39.3822 16.5557 39.872 17.0453 39.872 17.6494C39.872 19.6583 41.4402 21.3359 43.4423 21.4688C43.7371 21.4882 44.0114 21.6262 44.2028 21.8512C44.3944 22.0761 44.4867 22.369 44.4589 22.6631C44.0849 26.6118 42.9945 30.3049 41.218 33.6402C40.9339 34.1734 40.2715 34.3752 39.7385 34.0913C39.2053 33.8074 39.0034 33.145 39.2873 32.6118C40.7754 29.818 41.7425 26.7461 42.1678 23.4672C39.9282 22.8768 38.2077 21.0247 37.7847 18.7432H23.1468C22.7221 21.0345 20.989 22.8924 18.7355 23.4745C19.3104 28.9924 21.4551 33.8168 25.1188 37.8274C27.3118 40.2279 29.4619 41.6442 30.4049 42.2047C31.4367 41.5771 33.932 39.8906 36.3613 36.9663C36.7473 36.5014 37.4367 36.4378 37.9015 36.8238C38.3662 37.2098 38.43 37.8994 38.044 38.364C34.5867 42.5258 31.0579 44.3596 30.9092 44.4356C30.7529 44.5157 30.582 44.5557 30.4111 44.5557ZM31.257 38.6366C31.6212 38.1544 31.5257 37.4687 31.044 37.1045C30.0983 36.3899 29.2034 35.5797 28.384 34.6965C26.0015 32.1279 24.385 29.1101 23.573 25.7173C24.0105 25.3794 24.4221 25.006 24.8022 24.6018C25.4324 23.9312 25.9705 23.1825 26.4016 22.3758C26.6861 21.843 26.4849 21.1804 25.9521 20.8956C25.4193 20.6111 24.7567 20.8123 24.4721 21.3451C24.1318 21.9817 23.7067 22.5732 23.2085 23.1034C22.7693 23.5706 22.2771 23.9853 21.7461 24.3362C21.3735 24.5823 21.1879 25.0303 21.2774 25.468C22.1101 29.5399 23.9614 33.1454 26.7803 36.1842C27.6865 37.1611 28.6773 38.0581 29.7251 38.8498C29.9225 38.9989 30.1541 39.0709 30.3837 39.0709C30.7148 39.0709 31.0421 38.9211 31.257 38.6366Z" fill="url(#paint0_linear_4632_11161)"/>
</g>
<defs>
<linearGradient id="paint0_linear_4632_11161" x1="16.4648" y1="30.6227" x2="44.4638" y2="30.6227" gradientUnits="userSpaceOnUse">
<stop stop-color="#6366F1"/>
<stop offset="0.5" stop-color="#8B5CF6"/>
<stop offset="1" stop-color="#D946EF"/>
</linearGradient>
<clipPath id="clip0_4632_11161">
<rect width="28" height="28" fill="white" transform="translate(16.4658 16.5557)"/>
</clipPath>
</defs>
</svg>
