<svg width="29" height="29" viewBox="0 0 29 29" fill="none" xmlns="http://www.w3.org/2000/svg">
<g id="shield" clip-path="url(#clip0_4632_11162)">
<path id="Vector" d="M14.4111 28.5557C14.2434 28.5557 14.0759 28.5172 13.9219 28.4403C13.7939 28.3762 10.7523 26.8341 7.56999 23.3749C5.70464 21.3476 4.17253 19.0742 3.01598 16.6182C1.57146 13.5506 0.71419 10.192 0.467455 6.6358C0.447375 6.3457 0.543719 6.05966 0.734911 5.8407C0.926318 5.62173 1.19676 5.48779 1.48708 5.46878C3.49022 5.33719 5.0595 3.65961 5.0595 1.64941C5.0595 1.04529 5.54912 0.555664 6.15325 0.555664H22.7782C23.3822 0.555664 23.872 1.04529 23.872 1.64941C23.872 3.65833 25.4402 5.33591 27.4423 5.46878C27.7371 5.48822 28.0114 5.62622 28.2028 5.85117C28.3944 6.07611 28.4867 6.36899 28.4589 6.66315C28.0849 10.6118 26.9945 14.3049 25.218 17.6402C24.9339 18.1734 24.2715 18.3752 23.7385 18.0913C23.2053 17.8074 23.0034 17.145 23.2873 16.6118C24.7754 13.818 25.7425 10.7461 26.1678 7.46722C23.9282 6.87677 22.2077 5.02466 21.7847 2.74316H7.14681C6.72212 5.03448 4.989 6.89236 2.73549 7.47449C3.31035 12.9924 5.45513 17.8168 9.11876 21.8274C11.3118 24.2279 13.4619 25.6442 14.4049 26.2047C15.4367 25.5771 17.932 23.8906 20.3613 20.9663C20.7473 20.5014 21.4367 20.4378 21.9015 20.8238C22.3662 21.2098 22.43 21.8994 22.044 22.364C18.5867 26.5258 15.0579 28.3596 14.9092 28.4356C14.7529 28.5157 14.582 28.5557 14.4111 28.5557ZM15.257 22.6366C15.6212 22.1544 15.5257 21.4687 15.044 21.1045C14.0983 20.3899 13.2034 19.5797 12.384 18.6965C10.0015 16.1279 8.38497 13.1101 7.57299 9.71732C8.01049 9.37936 8.42214 9.00595 8.80217 8.60178C9.43236 7.93121 9.97048 7.18246 10.4016 6.37582C10.6861 5.84305 10.4849 5.18039 9.95211 4.89563C9.41933 4.61108 8.75667 4.81232 8.47213 5.34509C8.13182 5.98169 7.70671 6.57321 7.20854 7.10342C6.76934 7.57062 6.27715 7.98526 5.74608 8.33624C5.37352 8.58234 5.18788 9.0303 5.27739 9.46802C6.11009 13.5399 7.96135 17.1454 10.7803 20.1842C11.6865 21.1611 12.6773 22.0581 13.7251 22.8498C13.9225 22.9989 14.1541 23.0709 14.3837 23.0709C14.7148 23.0709 15.0421 22.9211 15.257 22.6366Z" fill="url(#paint0_linear_4632_11162)"/>
</g>
<defs>
<linearGradient id="paint0_linear_4632_11162" x1="0.464844" y1="14.6227" x2="28.4638" y2="14.6227" gradientUnits="userSpaceOnUse">
<stop stop-color="#6366F1"/>
<stop offset="0.5" stop-color="#8B5CF6"/>
<stop offset="1" stop-color="#D946EF"/>
</linearGradient>
<clipPath id="clip0_4632_11162">
<rect width="28" height="28" fill="white" transform="translate(0.46582 0.555664)"/>
</clipPath>
</defs>
</svg>
