<svg width="29" height="29" viewBox="0 0 29 29" fill="none" xmlns="http://www.w3.org/2000/svg">
<g id="wallet" clip-path="url(#clip0_4632_11139)">
<g id="Group">
<g id="Group_2">
<path id="Vector" d="M22.9863 14.3182C21.177 14.3182 19.705 15.7902 19.705 17.5994C19.705 19.4087 21.177 20.8807 22.9863 20.8807H27.6347C27.6533 20.8807 27.6714 20.8788 27.6897 20.8779C27.7078 20.8788 27.7257 20.8806 27.7441 20.8806C28.3482 20.8806 28.8378 20.3909 28.8378 19.7869V11.2009C28.8378 9.74484 28.1221 8.4534 27.0247 7.65775L23.3037 1.55354C23.152 1.30461 22.9072 1.12654 22.6236 1.05895C22.34 0.991247 22.0412 1.03965 21.7934 1.19332L19.0493 2.89497L17.8119 0.800771C17.6631 0.54899 17.4197 0.367319 17.136 0.296225C16.8524 0.225131 16.552 0.270686 16.3022 0.422498L5.76572 6.82596H4.11913C3.52517 6.82596 3.04026 6.35007 3.02571 5.75955C3.04026 5.16904 3.52517 4.69315 4.11913 4.69315H6.14257C6.74664 4.69315 7.23632 4.20348 7.23632 3.5994C7.23632 2.99532 6.74664 2.50565 6.14257 2.50565H4.11913C2.57159 2.50565 1.27096 3.58266 0.927031 5.02647C0.869828 5.15914 0.837891 5.30515 0.837891 5.45877V5.73221V5.78689V23.8884C0.837891 26.3008 2.80051 28.2634 5.21288 28.2634H24.4628C26.349 28.2634 28.0171 27.0619 28.6137 25.2736C28.8049 24.7006 28.4953 24.0811 27.9223 23.89C27.3493 23.6988 26.7297 24.0084 26.5386 24.5814C26.2404 25.4753 25.4063 26.0759 24.4628 26.0759H5.21288C4.0067 26.0759 3.02539 25.0946 3.02539 23.8884V8.82582C3.36767 8.94723 3.73578 9.01345 4.11913 9.01345H24.4628C25.669 9.01345 26.6503 9.99476 26.6503 11.2009V14.3182H22.9863ZM26.6503 18.6931H22.9863C22.3832 18.6932 21.8925 18.2025 21.8925 17.5994C21.8925 16.9963 22.3832 16.5056 22.9863 16.5056H26.6503V18.6931ZM9.97769 6.82601L16.492 2.86702L17.6567 4.83801C17.679 4.89188 17.7047 4.94498 17.7365 4.99617C17.7602 5.03451 17.7866 5.07022 17.8141 5.10456L18.8313 6.82601H9.97769ZM21.3722 6.82596L20.1624 4.77868L22.0096 3.63325L23.9558 6.82596H21.3722Z" fill="url(#paint0_linear_4632_11139)"/>
</g>
</g>
</g>
<defs>
<linearGradient id="paint0_linear_4632_11139" x1="0.837891" y1="14.3304" x2="28.8378" y2="14.3304" gradientUnits="userSpaceOnUse">
<stop stop-color="#6366F1"/>
<stop offset="0.5" stop-color="#8B5CF6"/>
<stop offset="1" stop-color="#D946EF"/>
</linearGradient>
<clipPath id="clip0_4632_11139">
<rect width="28" height="28" fill="white" transform="translate(0.837891 0.263184)"/>
</clipPath>
</defs>
</svg>
